<?xml version="1.0" encoding="utf-8"?>
<!-- Generator: Adobe Illustrator 28.1.0, SVG Export Plug-In . SVG Version: 6.00 Build 0)  -->
<svg version="1.1" id="Calque_1" xmlns="http://www.w3.org/2000/svg" xmlns:xlink="http://www.w3.org/1999/xlink" x="0px" y="0px"
	 viewBox="0 0 1190.6 350.6" style="enable-background:new 0 0 1190.6 350.6;" xml:space="preserve">
<style type="text/css">
	.st0{fill:#0071A6;}
	.st1{fill:#00B3E7;}
</style>
<g id="XMLID_65_">
	<g id="XMLID_129_">
		<path id="XMLID_130_" class="st0" d="M391.2,170.8L391.2,170.8c-2.6-1.1-6.5-1.1-9.7,0c-1.8,0.6-3,1.9-3.3,3.8L358.6,275
			c-0.5,2.8,1.1,3.8,2.1,4.2c1.4,0.5,2.9,0.8,4.7,0.8c1.8,0,3.5-0.3,5-0.8c1.8-0.6,2.8-1.9,3.2-3.8L393.1,175
			C393.6,172.3,392.1,171.2,391.2,170.8z"/>
		<path id="XMLID_131_" class="st0" d="M399.4,128.5c-1.3-0.5-2.9-0.8-4.8-0.8c-1.7,0-3.4,0.3-4.9,0.8c-1.8,0.6-2.9,1.9-3.3,3.8
			l-3.3,17.2c-0.5,2.8,1.1,3.8,2,4.2c1.4,0.5,2.9,0.8,4.7,0.8c1.7,0,3.4-0.3,4.9-0.8c1.8-0.6,2.9-1.9,3.3-3.8l3.3-17.2
			C401.8,130.1,400.5,129,399.4,128.5z"/>
		<path id="XMLID_132_" class="st0" d="M493.4,174c-1.7-1.2-3.9-2.2-6.7-2.9c-2.7-0.7-6.1-1.2-10.1-1.3c-3.6-0.1-7.3,0-11.2,0.3
			c-3.8,0.2-7.7,0.7-11.4,1.4c-3.7,0.7-7.3,1.5-10.8,2.6c-3.5,1.1-6.6,2.3-9.3,3.8c-2.8,1.5-5.1,3.3-6.9,5.2c-1.9,2-3.1,4.3-3.6,6.7
			l-16.6,85.3c-0.4,2,0.3,3.4,2,4.2c1.3,0.6,2.9,0.9,4.7,0.9c0.8,0,1.7-0.1,2.5-0.2c0.9-0.1,1.7-0.3,2.5-0.7c0.8-0.3,1.5-0.8,2-1.4
			c0.6-0.6,1-1.4,1.2-2.4l16-82.4c0-0.2,0.3-1,1.5-2.5c0.9-1.1,2.7-2.3,5.2-3.5c2.6-1.2,6.2-2.3,10.8-3.2c4.6-0.9,10.7-1.4,18.1-1.4
			c3.3,0,5.9,0.3,7.6,0.8c1.7,0.5,3.1,1.1,4.1,1.7c1.1,0.7,1.9,1.3,2.6,1.8c0.9,0.7,2.1,1.1,3.6,1.1c1.1,0,2-0.2,2.8-0.6
			c0.8-0.4,1.4-0.8,1.9-1.3c0.5-0.5,0.9-1.1,1.1-1.7c0.2-0.5,0.4-1,0.5-1.6c0.3-1.5,0.1-3-0.5-4.5
			C496.3,176.6,495.1,175.2,493.4,174z"/>
		<path id="XMLID_133_" class="st0" d="M543.3,128.5c-1.3-0.5-2.9-0.8-4.8-0.8c-1.7,0-3.4,0.3-4.9,0.8c-1.8,0.6-2.9,1.9-3.3,3.8
			l-3.3,17.2c-0.5,2.8,1.1,3.8,2,4.2c1.4,0.5,2.9,0.8,4.7,0.8c1.7,0,3.4-0.3,4.9-0.8c1.8-0.6,2.9-1.9,3.3-3.8l3.3-17.2
			C545.7,130.1,544.4,129,543.3,128.5z"/>
		<path id="XMLID_134_" class="st0" d="M535.1,170.8c-2.6-1.1-6.5-1.1-9.7,0c-1.8,0.6-3,1.9-3.3,3.8L502.5,275
			c-0.5,2.8,1.1,3.8,2.1,4.2c1.4,0.5,2.9,0.8,4.7,0.8c1.8,0,3.5-0.3,5-0.8c1.8-0.6,2.8-1.9,3.2-3.8L537,175
			C537.5,172.3,536,171.2,535.1,170.8z"/>
		<path id="XMLID_135_" class="st0" d="M630.9,171.2c-1.1-0.3-2.2-0.4-3.4-0.4c-1,0-2,0-2.8,0h-38.8l3.3-17c0.2-1,0.1-1.9-0.3-2.6
			c-0.4-0.7-1-1.2-1.7-1.5c-0.6-0.3-1.4-0.5-2.2-0.6c-2.6-0.4-5-0.2-7.3,0.6c-1.8,0.6-2.9,1.9-3.3,3.8l-3.4,17.4
			c-1.8,0-3.3,0-4.6,0.1c-1.3,0.1-2.4,0.3-3.3,0.7c-1,0.4-1.8,1-2.3,1.8c-0.5,0.8-0.8,1.7-1.1,3c-0.4,1.9-0.3,3.3,0.3,4.4
			c0.6,1.1,1.4,1.8,2.6,2.2c1,0.4,2.2,0.5,3.5,0.5h2.5l-12.8,65.7c-1.2,6.2-1.1,11.4,0.2,15.3c1.4,4,3.6,7.2,6.6,9.5
			c3,2.3,6.6,3.8,10.8,4.7c4.1,0.8,8.4,1.2,12.8,1.2c4.3,0,8.5-0.5,12.4-1.5c3.9-1,7.5-2.2,10.6-3.7c3.1-1.5,5.6-3.2,7.6-5
			c2.1-1.9,3.3-3.8,3.7-5.6c0.3-1.5,0.2-2.8-0.4-3.8c-0.6-1.2-2.1-1.8-4.2-1.8c-1,0-2.2,0.5-3.7,1.6c-1.3,0.9-2.9,1.9-4.8,2.9
			c-1.9,1-4.4,2-7.3,2.9c-2.8,0.9-6.3,1.3-10.4,1.3c-3.8,0-7.1-0.3-9.8-1c-2.6-0.6-4.7-1.7-6.2-3.2c-1.5-1.5-2.5-3.5-2.9-6
			c-0.5-2.6-0.3-5.8,0.4-9.7l12.4-64l45,0c1.4-0.1,2.8-0.8,3.9-2.2c1.1-1.3,1.8-2.8,2.2-4.4c0.3-1.8,0.1-3.1-0.8-4
			C633,172.1,632.1,171.5,630.9,171.2z"/>
		<path id="XMLID_136_" class="st0" d="M735.8,173.6c-4.7-2.5-11.1-3.8-19.2-3.8c-8.8,0-17.1,0.6-24.6,1.7c-6.7,1-12.6,2.6-17.5,4.7
			l8.5-43.7c0.5-2.7-1-3.8-1.9-4.2c-2.6-1.1-6.5-1.1-9.7,0c-1.8,0.6-3,1.9-3.3,3.9L640.3,275c-0.5,2.8,1.1,3.8,2,4.2
			c2.7,1.1,6.6,1.1,9.7,0c1.7-0.6,2.9-1.9,3.2-3.8l15.2-78.1c0.2-1,0.5-2,0.9-3.1c0.4-1.1,1-2.1,1.9-3.2c0.9-1.1,2.3-2.1,4-3.1
			c1.7-1,4.1-1.9,7.1-2.7c3-0.8,6.8-1.4,11.2-1.9c4.4-0.5,9.8-0.7,16.1-0.7c6.3,0,11.1,1,14.4,2.8c3.2,1.8,5.4,4.7,6.6,8.6
			c1.2,4,1.5,9.2,0.8,15.5c-0.6,6.3-1.8,14-3.6,23l-8.7,43.1c-0.5,2.8,1,3.8,2,4.1c1.3,0.4,2.9,0.6,4.7,0.6c0.8,0,1.6,0,2.4-0.1
			c0.9-0.1,1.7-0.3,2.4-0.5c0.8-0.3,1.5-0.7,2-1.3c0.6-0.6,1-1.4,1.2-2.4l9.9-51.1c1.6-8.3,2.6-15.9,2.8-22.6
			c0.2-6.8-0.7-12.6-2.7-17.4C744,179.9,740.6,176.2,735.8,173.6z"/>
		<path id="XMLID_139_" class="st0" d="M861.7,177.4L861.7,177.4c-3.7-2.6-8.3-4.5-13.7-5.8c-5.4-1.2-11.4-1.8-17.9-1.8
			c-10,0-18.5,1.4-25.2,4.1c-6.7,2.7-12.3,6.6-16.7,11.6c-4.3,5-7.8,11.1-10.3,18.2c-2.4,7-4.5,14.8-6.2,23.4
			c-1,5.4-1.9,10.4-2.5,15.1c-0.6,4.7-0.8,9-0.5,13c0.3,3.9,1.2,7.5,2.7,10.6c1.5,3.1,3.8,5.8,7,8c3.1,2.1,7.1,3.8,12,4.9
			c4.9,1.1,10.9,1.6,18,1.6c6,0,11.6-0.5,16.6-1.4c5-1,9.5-2.2,13.2-3.8c3.8-1.6,6.8-3.4,9.1-5.4c2.3-2.1,3.7-4.2,4.2-6.4
			c0.4-2,0-3.6-1.3-4.6c-1.2-1-2.5-1.4-4.1-1.2c-1,0.2-2.3,0.8-4,2c-1.6,1.1-3.7,2.2-6.5,3.4c-2.8,1.2-6.4,2.4-10.7,3.4
			c-4.3,1-9.6,1.5-15.7,1.5c-6.2,0-11.2-0.6-14.8-1.8c-3.5-1.2-6.2-3-7.9-5.3c-1.7-2.3-2.7-5.3-2.9-8.8c-0.2-3.4,0.1-7.5,0.8-12.1
			c3.9-0.5,8.2-1.1,13.2-1.8c5.1-0.7,10.4-1.6,15.8-2.5c5.2-0.9,10.4-1.8,15.5-2.8c5.1-1,9.5-1.9,13.2-2.8c5-1.2,9.2-2.5,12.5-4
			c3.4-1.5,6.2-3.3,8.3-5.3c2.2-2.1,3.9-4.6,5.1-7.5c1.2-2.8,2.1-6.2,2.8-10.2c1-5.8,0.6-10.8-1.1-15
			C868.2,183.4,865.4,180,861.7,177.4z M856.4,201.8L856.4,201.8c-0.3,2.6-0.9,4.9-1.8,6.8c-0.9,1.9-2,3.5-3.4,4.8
			c-1.4,1.3-3.1,2.4-5,3.2c-2,0.8-4.3,1.6-6.9,2.1c-4,0.8-8.4,1.6-13.2,2.5c-5.1,0.9-10.1,1.8-14.9,2.5c-4.8,0.8-9.6,1.5-14.4,2.3
			c-3.9,0.6-7.3,1.1-10.1,1.5c1.1-4.8,2.1-9.1,3.2-13.1c1.1-4.1,2.3-8,3.8-11.4c1.4-3.3,3.1-6.4,5.1-9c2-2.6,4.5-4.8,7.5-6.5
			c3-1.8,6.7-3.1,10.8-4.1c4.2-0.9,9.4-1.4,15.2-1.4c3.6,0,6.9,0.5,10.1,1.4c3.1,0.9,5.8,2.2,8,4c2.2,1.7,3.9,3.8,4.9,6.2
			C856.5,195.9,856.8,198.7,856.4,201.8z"/>
		<path id="XMLID_140_" class="st0" d="M971.4,174c-1.7-1.2-3.9-2.2-6.7-2.9c-2.7-0.7-6.1-1.2-10.1-1.3c-3.6-0.1-7.4,0-11.2,0.3
			c-3.8,0.2-7.6,0.7-11.4,1.4c-3.7,0.7-7.3,1.5-10.8,2.6c-3.5,1-6.6,2.3-9.3,3.8c-2.8,1.5-5.1,3.3-6.9,5.2c-1.9,2-3.1,4.3-3.6,6.7
			l-16.6,85.3c-0.4,2,0.3,3.4,2,4.2c1.4,0.6,2.9,0.9,4.7,0.9c0.8,0,1.7-0.1,2.5-0.2c0.9-0.1,1.7-0.3,2.5-0.7c0.8-0.3,1.5-0.8,2-1.4
			c0.6-0.6,1-1.5,1.2-2.4l16-82.4c0.1-0.3,0.3-1,1.5-2.5c0.9-1.1,2.7-2.3,5.2-3.5c2.6-1.2,6.2-2.3,10.8-3.2
			c4.6-0.9,10.7-1.4,18.1-1.4c3.3,0,5.9,0.3,7.6,0.8c1.7,0.5,3.1,1.1,4.1,1.7c1,0.7,1.9,1.3,2.6,1.8c0.9,0.7,2.1,1.1,3.6,1.1
			c1.1,0,2-0.2,2.8-0.6c0.8-0.4,1.4-0.8,1.9-1.3c0.5-0.5,0.9-1.1,1.1-1.7c0.2-0.6,0.4-1.1,0.5-1.6c0.3-1.5,0.1-3-0.5-4.5
			C974.4,176.6,973.2,175.2,971.4,174z"/>
		<path id="XMLID_141_" class="st0" d="M1143.3,184.7c-2.1-4.8-5.6-8.6-10.4-11.1c-4.8-2.5-11.2-3.8-19.3-3.8
			c-5.9,0-11.1,0.4-15.5,1.1c-4.5,0.7-8.4,1.7-11.6,3c-3.3,1.3-6.1,2.9-8.3,4.8c-1.7,1.5-3.3,3.1-4.5,4.8c-2.1-4.1-5.3-7.4-9.4-9.8
			c-4.6-2.7-11-4-19-4c-9.1,0-16.7,0.5-22.6,1.4c-6,1-10.8,2.4-14.3,4.2c-3.6,1.9-6.4,4.3-8,7c-1.7,2.7-2.8,5.9-3.5,9.4l-16.2,83.5
			c-0.5,2.8,1.1,3.8,2.2,4.1c1.9,0.6,4.3,0.8,7.1,0.5c0.9-0.1,1.7-0.3,2.4-0.5c0.8-0.3,1.5-0.7,2-1.3c0.6-0.6,1-1.4,1.2-2.4
			l16.2-83.2c0.2-1,0.6-1.9,1.1-2.9c0.6-0.9,1.4-1.9,2.5-2.7c1.1-0.9,2.7-1.7,4.8-2.3c2.1-0.7,4.8-1.2,8.1-1.7
			c3.3-0.4,7.4-0.6,12.2-0.6c6.3,0,11.1,0.9,14.4,2.6c3.2,1.7,5.4,4.4,6.5,8.1c1.2,3.8,1.5,8.9,0.8,15c-0.7,6.4-1.9,14-3.6,22.8
			l-8.6,44.4c-0.6,2.9,1.2,3.8,2,4.1c1.3,0.4,3,0.6,4.8,0.6c0.8,0,1.6,0,2.4-0.1c0.9-0.1,1.7-0.3,2.4-0.5c0.8-0.3,1.5-0.7,2-1.3
			c0.6-0.6,1-1.4,1.2-2.4l9.6-49.5c0.3-1.6,0.6-3.3,0.9-4.9c0.3-1.5,0.5-3,0.8-4.8l3-15.2c0.5-2.7,1.3-5.2,2.4-7.5
			c1.1-2.3,2.7-4.3,4.9-5.9c2.2-1.7,5.1-3,8.7-4c3.6-1,8.2-1.5,13.7-1.5c6.3,0,11.2,1,14.5,2.8c3.3,1.9,5.5,4.7,6.8,8.6
			c1.3,4,1.6,9.2,1.1,15.5c-0.6,6.4-1.8,14.1-3.6,23l-8.7,43.1c-0.5,2.8,1,3.8,2,4.1c1.3,0.4,2.9,0.6,4.8,0.6c0.8,0,1.6,0,2.4-0.1
			c0.9-0.1,1.7-0.3,2.4-0.5c0.8-0.3,1.4-0.7,2-1.3c0.6-0.6,1-1.4,1.1-2.4l9.9-51.1c1.6-8.4,2.5-16,2.7-22.6
			C1146.3,195.3,1145.4,189.5,1143.3,184.7z"/>
	</g>
	<g id="XMLID_66_">
		<g>
			<path id="XMLID_00000130645917524137469250000001473095019724720515_" class="st0" d="M359.5,107.9c0.5-21.8-15.8-40-49.6-52.1
				c-37.6-14.2-96.7-20.4-178.4-15.1l-5.1,24l0.1,0l0,0L188.2,85l5.4-26.6c34.9,2.4,60.1,8.5,76.6,17.1c24.1,12.6,29.7,30.7,20.4,51
				l0,0c0,0-3.3,9-19.1,26.3c-23.5,25.6-112.1,69.2-112.4,69.3l-57.9-43.1l0,0l-0.1,0l-26.7,129
				C263.3,243.1,361.9,163.6,359.5,107.9z"/>
			<polygon id="XMLID_00000172436970619909009860000016378373573311147914_" class="st1" points="35.2,94.5 163.2,192.2 185.2,94.5 
							"/>
		</g>
	</g>
</g>
</svg>
